<svg xmlns="http://www.w3.org/2000/svg" viewBox="0 0 150.02 105.05"><g data-name="Слой 2"><g data-name="Слой 1"><path d="M67.28 71.24l-1.77.62 3.23-1.15zm29.21-10.38c-1 .35-2 .68-2.95 1l6.17-2.2c-1.07.42-2.14.82-3.22 1.2z"/><path d="M149.95 66.06a2.48 2.48 0 0 1-1.83 2.82c-2.8 1.15-5.63 2.26-8.42 3.43-2.3 1-4.57 2-6.88 3S128.31 77 126.08 78s-4.41 2-6.64 2.89-4.4 1.78-6.59 2.68-4.38 1.83-6.57 2.75l-6.67 2.78c-2.35 1-4.69 2-7 3-2.11.88-4.23 1.73-6.34 2.61-2.39 1-4.77 2-7.16 3-2.85 1.18-5.71 2.31-8.55 3.49s-5.66 2.43-8.51 3.58a2.71 2.71 0 0 1-1.76.16c-3.38-1.24-6.74-2.56-10.09-3.89-3.11-1.23-6.18-2.54-9.3-3.73-3.86-1.47-7.73-2.91-11.64-4.25-7.48-2.52-13.7-6.62-18.26-13.2Q10 78.44 9.13 77C4.94 71.8 1.75 64.38.53 55.86A47.66 47.66 0 0 1 .88 39.6a10.65 10.65 0 0 1 .83-3.39l.07-.14a31.53 31.53 0 0 1 1.09-3 7 7 0 0 1 1.65-3.28A19.9 19.9 0 0 1 8.38 25a6.22 6.22 0 0 1 2-1.61 14.82 14.82 0 0 1 1.73-.82 13.82 13.82 0 0 1 7.8-.7 20.81 20.81 0 0 1 6.42 2.58c4.9 2.9 8.32 7.31 11.06 12.16A50.23 50.23 0 0 1 41.83 47a46.71 46.71 0 0 1 2.07 18.3c-.59 5.68-2 11.18-6.43 15.29a11.67 11.67 0 0 1-10.56 3.27l-.53-.11c-5.63-1.27-9.55-4.85-12.79-9.31a47.51 47.51 0 0 1-3.75-6.17 27.57 27.57 0 0 1-1.89-5 62.5 62.5 0 0 1-2.08-8.45A33.9 33.9 0 0 1 6 43.51 21.87 21.87 0 0 1 8.76 36a11.37 11.37 0 0 1 7.07-5.54c4.92-1.21 8.72.8 12.14 3.86a29.66 29.66 0 0 1 7.4 11.23 36.11 36.11 0 0 1 2.38 17.7c-.45 4.47-2 8.27-5.65 11.08a8 8 0 0 1-5.51 1.43c-4.77-.22-7.89-3.14-10.53-6.72a28.68 28.68 0 0 1-4.7-10.78 26 26 0 0 1-.06-11.64 10.77 10.77 0 0 1 3.81-6.37c3.21-2.45 6.85-2.1 10 .48A20 20 0 0 1 31.38 51a23.91 23.91 0 0 1 .55 9.38c-.33 3-1.77 5.74-4.87 6.86-2.35.84-4.54 0-6.36-1.64a12.24 12.24 0 0 1-4-7 33 33 0 0 1-.67-5.49 6.05 6.05 0 0 1 2.4-5.11 7.28 7.28 0 0 1 3.18-.79c.22 0 .71.62.75 1 .13 1 .07 2 .11 3.07s.2 2.22-1.27 2.73c-.36.13-.62 1-.67 1.49a5.11 5.11 0 0 0 1.77 4.86c2 1.63 4 .12 4.84-1.79 1.79-4.14-.56-10-3.32-12.17-3.27-2.63-6.58-.76-7.83 2.25-1.42 3.42-1.18 6.88-.19 10.4a16 16 0 0 0 5.47 8.64c3.67 2.87 8.56 1.8 10.73-2.69a16.75 16.75 0 0 0 1.51-9.6 28.2 28.2 0 0 0-2.76-9.4 21.77 21.77 0 0 0-5.18-6.91 9.11 9.11 0 0 0-8.76-2.06A8.11 8.11 0 0 0 12 41.36a20.48 20.48 0 0 0-1.79 14.94c.39 1.58.56 3.21 1 4.77a26.77 26.77 0 0 0 1.71 4.41 27.07 27.07 0 0 0 6.47 8.75C22.67 77 26.46 78.36 30.72 77c2.79-.89 4.69-3.07 6.06-5.61 2.75-5.12 3-10.71 2.29-16.23a38.64 38.64 0 0 0-7.87-19.25 20.51 20.51 0 0 0-8.55-6.8c-5.59-2.16-10.4-.4-13.9 4.26a21.49 21.49 0 0 0-3.34 7.52c-1.3 4.84-1 9.71-.48 14.55A38.78 38.78 0 0 0 7 63.33a52 52 0 0 0 2.46 6.19A38.9 38.9 0 0 0 18 81.09a22.22 22.22 0 0 0 5.31 3.53 32.63 32.63 0 0 0 4.55 1.88c1.53.42 3.06.84 4.54 1.38 2.56.92 5.1 1.92 7.64 2.89s4.92 1.9 7.39 2.82 5.12 1.87 7.68 2.81a31.55 31.55 0 0 1 4.55 1.72c1.25.69 2.19 0 3.15-.3 2.16-.74 4.24-1.72 6.36-2.58 2.44-1 4.9-1.95 7.35-2.95 2.28-.93 4.54-1.91 6.81-2.85s4.47-1.81 6.71-2.71l7-2.82 7-2.81 6.72-2.71c2.44-1 4.89-2 7.33-3 2.2-.9 4.38-1.82 6.58-2.71 2.4-1 4.83-1.91 7.23-2.89s4.61-1.95 6.92-2.91a15.15 15.15 0 0 0 3.2-1.61 22.84 22.84 0 0 0-2.15-.78c-2.56-.66-5.14-1.28-7.71-1.9-1.25-.31-2.5-.59-3.74-.91l-12.45-3.18c-2.09-.54-4.17-1.17-6.29-1.57a6.66 6.66 0 0 0-2.44 0l9.76-3.4a6.78 6.78 0 0 0 1.35 1c1 .34 2.12.59 3.19.86 4.15 1.06 8.29 2.13 12.45 3.16 2.53.63 5.08 1.19 7.61 1.8 2.27.55 4.55 1.1 6.8 1.72 1 .28 1.86.81 1.62 2.15a6 6 0 0 0-.07 1.84z"/><path d="M134.78 26.12a25.92 25.92 0 0 0-2.65-10.19 29.68 29.68 0 0 0-8.74-11.6C120 1.71 116.31-.25 111.85 0c-2.24.14-4.48.45-6.7.79-1.87.29-3.73.7-5.59 1.12-3.06.7-6.1 1.46-9.16 2.18-2.67.63-5.35 1.2-8 1.84S76.82 7.4 74 8s-5.71 1.21-8.55 1.84c-1.39.3-2.75.69-4.13 1-1.67.41-3.35.82-5 1.2s-3.21.66-4.8 1c-3.14.73-6.27 1.49-9.4 2.23-1.6.38-3.19.74-4.78 1.13s-3.17.84-4.76 1.2c-2.81.63-5.63 1.19-8.43 1.83-1 .23-2 .6-3.22 1L22 21a30.2 30.2 0 0 1 4.12 1.76c5.82 3.56 10 8.67 13.15 14.64a56.85 56.85 0 0 1 4.24 10.94 54.21 54.21 0 0 1 1.78 11.4 34.26 34.26 0 0 1-1 10.7 24.31 24.31 0 0 1-3.32 7.84l-1.66 2.46.25.31c1.8-.64 3.61-1.27 5.4-1.92s3.72-1.36 5.59-2 3.74-1.28 5.6-1.93 3.88-1.42 5.83-2.1c1.19-.42 2.4-.82 3.59-1.23l3.23-1.15h.06c1.43-.53 2.86-1.08 4.3-1.6 2.57-.91 5.16-1.77 7.73-2.69s5.18-2 7.79-2.87c1.62-.57 3.26-1.1 4.89-1.64l6.17-2.2c2.26-.85 4.52-1.71 6.8-2.49.22-.07.45-.13.68-.18l9.78-3.51c1.42-.51 2.54-.88 3.63-1.31a41 41 0 0 0 5-2.08 16 16 0 0 0 6.52-6.91 23.92 23.92 0 0 0 2.53-7.3 65.44 65.44 0 0 0 .1-9.82zm-5.14 9.11a19.49 19.49 0 0 1-2 5.76 11.26 11.26 0 0 1-4.49 4.79 24.38 24.38 0 0 1-3 1.27l-1.36.52c-.68.27-1.37.51-2.14.78l-1.34.47-.32.13-9.19 3.25a8.34 8.34 0 0 0-.89.26c-2 .68-4 1.43-5.94 2.15L98 55l-6 2.16-1.12.37c-1.28.42-2.57.84-3.84 1.29-1.43.51-2.85 1-4.27 1.57-1.18.44-2.36.89-3.55 1.31s-2.67.94-4 1.4-2.47.85-3.7 1.29c-1 .36-2 .75-3.05 1.13l-1.42.48-3.22 1.15-1.08.37-2.5.85-3 1.08-2.83 1-2.76 1-2.78 1 .18-.7a39.33 39.33 0 0 0 1.19-12.25 57.92 57.92 0 0 0-2-12.46 61.21 61.21 0 0 0-4.62-11.9 44.52 44.52 0 0 0-9.59-12.58c.87-.21 1.74-.43 2.6-.66l1.86-.48 3-.7 1.79-.42 3-.72 6.35-1.5 2.4-.51c.8-.17 1.59-.33 2.38-.51 1.52-.34 3-.72 4.56-1.09l.55-.13 1.62-.41c.8-.21 1.59-.41 2.39-.59 1.18-.26 2.35-.51 3.53-.75 1.69-.35 3.39-.71 5.08-1.1s3.13-.77 4.69-1.17c1.23-.32 2.46-.63 3.7-.93 1.5-.36 3-.7 4.51-1L91.54 9c1.3-.3 2.59-.62 3.88-.93 1.75-.42 3.5-.84 5.25-1.24 2-.45 3.62-.8 5.24-1 2.35-.36 4.32-.63 6.25-.75h.53c2.37 0 4.72 1 7.62 3.27a24.79 24.79 0 0 1 7.25 9.68 21.58 21.58 0 0 1 2.22 8.24v2.1a44.78 44.78 0 0 1-.14 6.86z"/><path d="M55.22 64.87a42.23 42.23 0 0 0 0-5.77 62.55 62.55 0 0 0-2.15-13.5 65.33 65.33 0 0 0-5-12.86 55.34 55.34 0 0 0-4.66-7.4l4-1 6.32-1.49c.74-.17 1.48-.32 2.22-.48.89-.18 1.72-.35 2.54-.54 1.55-.35 3.1-.73 4.65-1.11l.54-.13 1.69-.43h.12c.7-.18 1.4-.36 2.11-.52l3.4-.71c1.83-.38 3.56-.74 5.29-1.14s3.21-.78 4.81-1.2c1.26-.32 2.44-.63 3.62-.91 1.48-.36 3-.69 4.43-1h.15l3.39-.77 3.72-.91.34-.08c1.68-.41 3.36-.81 5-1.19 1.87-.43 3.41-.76 4.89-1 2.22-.34 4.05-.59 5.8-.7h.21c.73 0 2 .23 4.54 2.21A19.87 19.87 0 0 1 123 20a17.34 17.34 0 0 1 1.8 6.27v2.15a40.56 40.56 0 0 1-.14 6.14 14.52 14.52 0 0 1-1.56 4.21 6.17 6.17 0 0 1-2.46 2.67 21 21 0 0 1-2.32 1l-1.45.55c-.59.23-1.18.44-1.86.67l-1.47.52-.45.17-8.78 3.13c-.35.09-.7.2-1 .31-2.09.71-4.12 1.47-6.09 2.21l-1 .38-5.91 2.1-1.07.35c-1.31.43-2.63.87-3.94 1.33s-2.79 1-4.19 1.54l-.33.12a189 189 0 0 1-7.16 2.56h-.12c-1.25.43-2.51.86-3.76 1.31-1 .37-2.09.76-3.13 1.16l-1.31.49-3.14 1.12-1 .34-2.56.88-3 1.09z" fill="#435760"/><path d="M88.61 63.53c1.62-.57 3.26-1.1 4.89-1.64l-24.71 8.8c1.43-.53 2.86-1.08 4.3-1.6 2.57-.91 5.16-1.77 7.72-2.69s5.19-1.95 7.8-2.87zM107.19 57l-7.48 2.66c2.26-.85 4.52-1.71 6.8-2.48a5.55 5.55 0 0 1 .68-.18z"/></g></g></svg>