<svg xmlns="http://www.w3.org/2000/svg" viewBox="0 0 132 132.15"><defs><style>.cls-1{fill:#435760}</style></defs><g id="Слой_2" data-name="Слой 2"><g id="Слой_1-2" data-name="Слой 1"><path d="M.18 61.93C1.57 26 34.1-2.86 71.1.23a65.77 65.77 0 0 1 60.83 68.41c-1.77 39.3-34.93 65.9-70.82 63.36C24.91 129.4-2.48 97.89.18 61.93zm125.11 4.42c.65-32.61-26.21-59.61-59-59.92a59.65 59.65 0 1 0 59 59.92z"/><path class="cls-1" d="M120.38 66.14c.49 29.31-23.59 54.72-54.5 54.65-30.69-.07-54.52-24.31-54.61-54.79-.1-30.07 24.62-54.85 54.73-54.67 30.49.17 55 25.32 54.38 54.81zM62 89.16l-19.56-3.83-.75 13.87L62 102c0 1.62-.33 3.44.12 5.05a4.35 4.35 0 0 0 2.63 2.59c2.34.62 3.23-.95 2.88-3.06-.72-4.35 1.33-5.81 5.41-6.47a28.51 28.51 0 0 0 9.34-3.56C94.85 89.39 95.44 71.18 85 64.52c-5-3.2-10.73-5.28-16.69-8.13 0-3.08.12-6.87 0-10.65-.13-3.14 1.33-3.67 4-3.15 4.45.85 8.94 1.54 13.54 2.32l1-12.1L68.62 30c-.1-1.65.09-3.48-.43-5.08-.34-1-1.69-2.39-2.64-2.44s-2.18 1.46-2.47 2.52a22 22 0 0 0-.38 5c-4.16 1.18-7.9 1.91-11.37 3.31-6.14 2.48-10.4 7-11.45 13.65-1.13 7.11-.08 14 6.59 18.27C50.38 67.7 55 69 59.21 71.06c1.1.53 2.57 1.75 2.63 2.73.28 4.7.16 9.43.16 15.37z"/><path class="cls-1" d="M67.94 87.8V73.09c5.46 1 8.57 4.25 8.22 8.24s-3.31 6.47-8.22 6.47zm-5.17-44.66V55.9c-5.05-.08-7.57-2.29-7.5-6.41.08-3.85 2.79-6.26 7.5-6.35z"/></g></g></svg>