<svg xmlns="http://www.w3.org/2000/svg" viewBox="0 0 102.56 123.88"><g data-name="Слой 2"><g data-name="Слой 1"><path d="M102.55 16.47c.06-.7-.19-.88-.89-.88-4.48 0-9 0-13.45-.21a58.4 58.4 0 0 1-18-3.75A54.6 54.6 0 0 1 51.77.27c-.38-.37-.61-.35-1 0a52.54 52.54 0 0 1-13.24 9.12 59.1 59.1 0 0 1-23.2 6c-4.41.22-8.84.19-13.26.2-.93 0-1.08.31-1.07 1.11 0 3.46 0 6.91.05 10.37.1 5.79.14 11.59.45 17.37.29 5.27.8 10.56 1.43 15.8.48 4 1.17 8 2 11.94.65 3.16 1.59 6.26 2.49 9.35a50.94 50.94 0 0 0 5.38 12.31 64.85 64.85 0 0 0 13.59 15.63c7.46 6.32 15.58 11.46 25 14.27a2.82 2.82 0 0 0 1.55.06 55.6 55.6 0 0 0 12.11-5.12 79.61 79.61 0 0 0 21.14-17.21 52.89 52.89 0 0 0 8.62-13.56 70 70 0 0 0 4.31-13.54c1-4.74 1.86-9.52 2.51-14.32s1.17-9.65 1.37-14.49c.33-7.81.37-15.63.53-23.45.03-.84-.01-5.21.02-5.64zm-5 5.54l-.12 6.81c-.08 5.43-.17 11-.41 16.53-.17 4.2-.6 8.79-1.31 14-.56 4.14-1.33 8.58-2.44 14a65.2 65.2 0 0 1-4 12.57 47.59 47.59 0 0 1-7.82 12.28 74.12 74.12 0 0 1-19.85 16.14 50.69 50.69 0 0 1-10.3 4.44c-7.63-2.36-15.05-6.66-22.67-13.12a59.11 59.11 0 0 1-12.56-14.43 45.85 45.85 0 0 1-4.86-11.09l-.28-1c-.81-2.76-1.57-5.36-2.11-8C8 67 7.32 63.22 6.89 59.64c-.68-5.74-1.14-10.8-1.4-15.48-.24-4.51-.32-9.16-.39-13.66L5 27v-6.4c3.23 0 6.41 0 9.58-.2a64.37 64.37 0 0 0 25.15-6.49A59 59 0 0 0 51.29 6.5a60.63 60.63 0 0 0 17.16 9.81A63.52 63.52 0 0 0 88 20.37c3.2.15 6.41.18 9.55.2 0 .65 0 1.2-.01 1.43z"/><path d="M90.21 26.71c-2.69 0-6.8-.23-8.73-.36a56.29 56.29 0 0 1-14.58-3.06 50 50 0 0 1-13.2-6.77c-.23-.16-2-1.57-2.35-1.89v94.63a3.88 3.88 0 0 0 .68-.11c1.83-.73 3.73-1.35 5.49-2.23a62.36 62.36 0 0 0 15.44-11A48.12 48.12 0 0 0 81 86c.27-.45 2.1-4 2.19-4.21a59.17 59.17 0 0 0 3.42-10.6c.82-3.79 1.54-7.62 2-11.47.61-4.89 1.06-9.82 1.35-14.74.26-4.45.2-8.91.28-13.37-.03-.42.12-4.32-.03-4.9z" fill="#435760"/></g></g></svg>