<svg xmlns="http://www.w3.org/2000/svg" viewBox="0 0 158.5 109.78"><g data-name="Слой 2"><g data-name="Слой 1"><rect x="60.04" y="86.89" width="40.27" height="4.85" rx="2.42" ry="2.42"/><path d="M158.47 56.18a10.48 10.48 0 0 0-2.13-6.51c-1.68-2.16-3.48-4.23-5.26-6.31-4.3-5-8.54-10.12-12.94-15.05-3.13-3.51-5.67-7.58-9.56-10.39a8.28 8.28 0 0 0-2.58-1.48 8.9 8.9 0 0 0-2.12-.33c-1.08 0-2.17-.11-3.25-.11h-14.16c-.68 0-.9-.21-.88-.88v-4.31a15.76 15.76 0 0 0-.28-3.39A9.72 9.72 0 0 0 95.66 0H10a7.25 7.25 0 0 0-4.7 1.69C1.21 5-.21 9.36 0 14.36v67.62a9.49 9.49 0 0 0 8.37 9.6 56.86 56.86 0 0 0 8.12.15 2.41 2.41 0 0 0-.33-4.8c-2 0-4.07-.07-6.1 0a5.13 5.13 0 0 1-5.28-5.25c.05-5.51 0-11 0-16.53v-1L82 64.2h70.66c.76 0 1 .18 1 1v16.44a5.09 5.09 0 0 1-5.35 5.32c-1.38-.06-2.77 0-4.15 0a2.44 2.44 0 0 0-.94.18 2.4 2.4 0 0 0-1.45 2.62 2.48 2.48 0 0 0 2.39 2h4.48a9.72 9.72 0 0 0 9.77-9.63q.13-12.97.06-25.95zm-4.76 2.45c0 .56-.21.8-.77.75H5.88c-.33 0-.67-.05-1-.09V14.87a3.27 3.27 0 0 0 0-.39v-.54a2.43 2.43 0 0 0 0-.27A11 11 0 0 1 6.3 7.52a4.71 4.71 0 0 1 4.4-2.69c7 .11 14.06 0 21.08 0h63.66a5.93 5.93 0 0 1 1.84.19A4.81 4.81 0 0 1 100.8 10v7.9c0 2 .87 2.9 2.92 2.9 4.5 0 17.53-.14 18-.14a7 7 0 0 1 4.84 1.74 3.92 3.92 0 0 1 .79.67c2.29 2.67 4.57 5.36 6.85 8 5.49 6.42 10.91 12.89 16.52 19.21a10.56 10.56 0 0 1 2.99 8.35z"/><path d="M39.33 88.39a3.77 3.77 0 1 1 0 7.54 3.8 3.8 0 0 1-3.75-3.83 3.73 3.73 0 0 1 3.75-3.71zm86.15 3.8a3.75 3.75 0 0 1-3.75 3.74 3.77 3.77 0 1 1 0-7.54 3.68 3.68 0 0 1 3.75 3.8zm17.46-44.79l-18.47-21.63a3.09 3.09 0 0 0-2.35-1.08h-9.73a3.09 3.09 0 0 0-3.09 3.09v21.63a3.09 3.09 0 0 0 3.09 3.09h28.2a3.09 3.09 0 0 0 2.35-5.1zm-28.21-.33v-17H121l14.48 17z"/><path d="M39.37 74.63a17.58 17.58 0 1 0 17.58 17.58 17.58 17.58 0 0 0-17.58-17.58zm0 30.44a12.86 12.86 0 1 1 12.86-12.86 12.88 12.88 0 0 1-12.86 12.86zM121 74.63a17.58 17.58 0 1 0 17.58 17.58A17.58 17.58 0 0 0 121 74.63zm0 30.44a12.86 12.86 0 1 1 12.86-12.86A12.88 12.88 0 0 1 121 105.07z"/><path fill="#435760" d="M8.5 9.43h89v45h-89z"/></g></g></svg>